<?xml version="1.0" encoding="UTF-8" standalone="no"?>
<svg
   width="680"
   height="195"
   viewBox="0 0 680 195"
   version="1.1"
   id="svg4"
   sodipodi:docname="spy-full-white.svg"
   xmlns:inkscape="http://www.inkscape.org/namespaces/inkscape"
   xmlns:sodipodi="http://sodipodi.sourceforge.net/DTD/sodipodi-0.dtd"
   xmlns="http://www.w3.org/2000/svg"
   xmlns:svg="http://www.w3.org/2000/svg">
  <sodipodi:namedview
     id="namedview4"
     pagecolor="#ffffff"
     bordercolor="#000000"
     borderopacity="0.25"
     inkscape:showpageshadow="2"
     inkscape:pageopacity="0.0"
     inkscape:pagecheckerboard="0"
     inkscape:deskcolor="#d1d1d1" />
  <defs
     id="defs1">
    <style
       id="style1">
      @font-face {
        font-family: 'Outfit';
        src: url('../../../fonts/Outfit-VariableFont_wght.ttf') format('truetype');
        font-weight: 100 900;
      }
    </style>
  </defs>
  <g
     id="text3"
     style="font-weight:700;font-size:155px;font-family:Outfit;letter-spacing:-0.01em"
     aria-label="SPY">
    <path
       style="fill:#ffffff"
       d="m 53.4,121.705 q -13.485,0 -23.25,-4.34 Q 20.54,112.87 12.48,103.88 L 28.29,88.225 q 5.27,6.045 11.625,9.455 6.51,3.255 15.035,3.255 7.75,0 11.935,-2.79 4.34,-2.79 4.34,-7.75 0,-4.495 -2.79,-7.285 -2.79,-2.79 -7.44,-4.805 Q 56.5,76.29 50.92,74.43 45.495,72.57 40.07,70.245 34.645,67.765 29.995,64.2 25.5,60.48 22.71,55.055 q -2.79,-5.58 -2.79,-13.95 0,-10.075 4.805,-17.36 4.96,-7.285 13.64,-11.005 8.68,-3.875 19.995,-3.875 11.47,0 20.925,4.03 9.61,4.03 15.81,11.005 L 79.285,39.555 Q 74.325,34.44 69.21,31.96 64.25,29.48 57.895,29.48 q -6.355,0 -10.075,2.48 -3.72,2.325 -3.72,6.82 0,4.185 2.79,6.82 2.79,2.48 7.285,4.34 4.65,1.86 10.075,3.72 5.58,1.86 11.005,4.34 5.425,2.48 9.92,6.355 4.65,3.72 7.44,9.61 2.79,5.735 2.79,14.26 0,15.655 -11.16,24.645 -11.16,8.835 -30.845,8.835 z"
       id="path4" />
    <path
       style="fill:#ffffff"
       d="m 127.95503,80.165 v -18.91 h 23.56 q 4.495,0 8.215,-1.86 3.72,-1.86 5.89,-5.425 2.17,-3.565 2.17,-8.68 0,-4.96 -2.17,-8.525 -2.17,-3.565 -5.89,-5.425 -3.72,-1.86 -8.215,-1.86 h -23.56 V 10.57 h 27.125 q 10.385,0 18.755,4.185 8.37,4.185 13.175,12.09 4.96,7.75 4.96,18.445 0,10.695 -4.96,18.6 -4.805,7.75 -13.175,12.09 -8.37,4.185 -18.755,4.185 z m -18.6,39.835 V 10.57 h 24.335 V 120 Z"
       id="path5" />
    <path
       style="fill:#ffffff"
       d="m 229.78007,79.235 -42.16,-68.665 h 28.21 l 32.395,55.49 h -18.135 l 32.395,-55.49 h 27.59 l -42.47,68.665 z M 226.83507,120 V 68.075 h 24.335 V 120 Z"
       id="path6" />
  </g>
  <path
     d="m 16.875,155.25 q -2.05,0 -3.5,-0.75 -1.45,-0.75 -2.575,-2.175 l 1.6,-1.6 q 0.825,1.15 1.9,1.75 1.075,0.575 2.65,0.575 1.55,0 2.475,-0.675 0.95,-0.675 0.95,-1.85 0,-0.975 -0.45,-1.575 -0.45,-0.6 -1.225,-0.975 -0.75,-0.4 -1.65,-0.7 -0.9,-0.325 -1.8,-0.675 -0.9,-0.375 -1.65,-0.9 -0.75,-0.55 -1.225,-1.425 -0.45,-0.875 -0.45,-2.2 0,-1.475 0.7,-2.5 0.725,-1.05 1.95,-1.6 1.25,-0.575 2.8,-0.575 1.7,0 3.05,0.675 1.35,0.65 2.2,1.725 l -1.6,1.6 q -0.775,-0.9 -1.675,-1.35 -0.875,-0.45 -2.025,-0.45 -1.4,0 -2.225,0.625 -0.825,0.6 -0.825,1.7 0,0.875 0.45,1.425 0.475,0.525 1.225,0.9 0.75,0.375 1.65,0.7 0.925,0.3 1.825,0.675 0.9,0.375 1.65,0.95 0.75,0.575 1.2,1.5 0.475,0.9 0.475,2.275 0,2.3 -1.6,3.6 -1.575,1.3 -4.275,1.3 z m 13.425008,0 q -1.45,0 -2.625,-0.65 -1.15,-0.675 -1.8,-1.85 -0.65,-1.175 -0.65,-2.725 v -6.9 h 2.25 v 6.8 q 0,0.975 0.325,1.7 0.35,0.7 1,1.075 0.65,0.375 1.525,0.375 1.325,0 2.075,-0.825 0.75,-0.85 0.75,-2.325 v -6.8 h 2.25 v 6.9 q 0,1.55 -0.65,2.725 -0.65,1.175 -1.8,1.85 -1.125,0.65 -2.65,0.65 z m 13.550018,0 q -1.75,0 -3.15,-0.825 -1.4,-0.825 -2.225,-2.225 -0.825,-1.425 -0.825,-3.175 0,-1.725 0.825,-3.1 0.825,-1.4 2.225,-2.225 1.4,-0.825 3.15,-0.825 1.725,0 3.125,0.825 1.425,0.8 2.25,2.2 0.825,1.4 0.825,3.125 0,1.75 -0.825,3.175 -0.825,1.4 -2.25,2.225 -1.4,0.825 -3.125,0.825 z m 0,-2.175 q 1.125,0 2,-0.525 0.875,-0.525 1.375,-1.425 0.5,-0.925 0.5,-2.1 0,-1.15 -0.525,-2.05 -0.5,-0.9 -1.375,-1.4 -0.85,-0.525 -1.975,-0.525 -1.125,0 -2,0.525 -0.875,0.5 -1.375,1.4 -0.5,0.9 -0.5,2.05 0,1.175 0.5,2.1 0.5,0.9 1.375,1.425 0.875,0.525 2,0.525 z m 8.725,1.925 v -11.875 h 2.25 V 155 Z m 8.025,0 v -7.175 q 0,-1.325 -0.825,-2.075 -0.8,-0.775 -2.025,-0.775 -0.825,0 -1.475,0.35 -0.65,0.35 -1.05,0.975 -0.4,0.625 -0.4,1.5 l -0.925,-0.45 q 0,-1.35 0.575,-2.35 0.6,-1 1.625,-1.55 1.025,-0.575 2.3,-0.575 1.25,0 2.25,0.55 1.025,0.55 1.6,1.55 0.6,1 0.6,2.375 V 155 Z m 8.025,0 v -7.175 q 0,-1.325 -0.825,-2.075 -0.8,-0.775 -2,-0.775 -0.825,0 -1.5,0.35 -0.65,0.35 -1.05,0.975 -0.4,0.625 -0.4,1.5 l -1.275,-0.45 q 0.075,-1.375 0.725,-2.35 0.675,-1 1.725,-1.55 1.05,-0.575 2.3,-0.575 1.3,0 2.325,0.55 1.025,0.55 1.625,1.55 0.625,1 0.625,2.4 V 155 Z m 10.824988,0.25 q -1.775,0 -3.2,-0.8 -1.425,-0.825 -2.25,-2.225 -0.825,-1.4 -0.825,-3.175 0,-1.75 0.8,-3.15 0.825,-1.4 2.2,-2.2 1.4,-0.825 3.125,-0.825 1.65,0 2.9,0.75 1.275,0.75 1.975,2.075 0.725,1.325 0.725,3 0,0.25 -0.025,0.55 -0.025,0.275 -0.1,0.65 h -10.025 v -1.875 h 8.825 l -0.825,0.725 q 0,-1.2 -0.425,-2.025 -0.425,-0.85 -1.2,-1.3 -0.775,-0.475 -1.875,-0.475 -1.15,0 -2.025,0.5 -0.875,0.5 -1.35,1.4 -0.475,0.9 -0.475,2.125 0,1.25 0.5,2.2 0.5,0.925 1.425,1.45 0.925,0.5 2.125,0.5 1,0 1.825,-0.35 0.85,-0.35 1.45,-1.05 l 1.45,1.475 q -0.85,1 -2.1,1.525 -1.225,0.525 -2.625,0.525 z M 95.749997,155 v -6.925 q 0,-1.35 -0.85,-2.225 -0.85,-0.875 -2.2,-0.875 -0.9,0 -1.6,0.4 -0.7,0.4 -1.1,1.1 -0.4,0.7 -0.4,1.6 l -0.925,-0.525 q 0,-1.35 0.6,-2.4 0.6,-1.05 1.675,-1.65 1.075,-0.625 2.425,-0.625 1.35,0 2.375,0.675 1.05,0.675 1.65,1.775 0.6,1.075 0.6,2.3 V 155 Z m -8.4,0 v -11.875 h 2.25 V 155 Z m 20.875013,-6.75 v -2.05 h 4.725 q 0.975,0 1.725,-0.4 0.775,-0.4 1.2,-1.125 0.45,-0.725 0.45,-1.725 0,-1 -0.45,-1.725 -0.425,-0.725 -1.2,-1.125 -0.75,-0.4 -1.725,-0.4 h -4.725 v -2.05 h 4.875 q 1.6,0 2.85,0.65 1.275,0.65 2,1.85 0.75,1.175 0.75,2.8 0,1.6 -0.75,2.8 -0.725,1.175 -2,1.85 -1.25,0.65 -2.85,0.65 z m -1.575,6.75 v -17.35 h 2.35 V 155 Z m 19.12506,0.25 q -1.625,0 -2.95,-0.8 -1.325,-0.825 -2.1,-2.225 -0.75,-1.4 -0.75,-3.15 0,-1.75 0.75,-3.15 0.775,-1.4 2.075,-2.225 1.325,-0.825 2.975,-0.825 1.35,0 2.4,0.575 1.075,0.55 1.725,1.55 0.65,0.975 0.725,2.275 v 3.575 q -0.075,1.275 -0.725,2.275 -0.625,1 -1.7,1.575 -1.05,0.55 -2.425,0.55 z m 0.375,-2.125 q 1.675,0 2.7,-1.125 1.025,-1.15 1.025,-2.925 0,-1.225 -0.475,-2.125 -0.45,-0.925 -1.3,-1.425 -0.85,-0.525 -1.975,-0.525 -1.125,0 -2,0.525 -0.85,0.525 -1.35,1.45 -0.475,0.9 -0.475,2.075 0,1.2 0.475,2.125 0.5,0.9 1.375,1.425 0.875,0.525 2,0.525 z m 3.575,1.875 v -3.2 l 0.425,-2.9 -0.425,-2.875 v -2.9 h 2.275 V 155 Z m 5.55002,0 v -17.85 h 2.25 V 155 Z m 5.575,0 v -11.875 h 2.25 V 155 Z m 1.125,-14.25 q -0.625,0 -1.025,-0.4 -0.4,-0.425 -0.4,-1.05 0,-0.6 0.4,-1 0.4,-0.425 1.025,-0.425 0.625,0 1.025,0.425 0.4,0.4 0.4,1 0,0.625 -0.4,1.05 -0.4,0.4 -1.025,0.4 z m 12.05003,14.25 -5.55,-6.075 5.5,-5.8 h 2.725 l -6.125,6.4 0.1,-1.3 6.25,6.775 z m -7.6,0 v -17.85 h 2.25 V 155 Z m 20.04998,0 -5.55,-6.075 5.5,-5.8 h 2.725 l -6.125,6.4 0.1,-1.3 6.25,6.775 z m -7.6,0 v -17.85 h 2.25 V 155 Z m 16.82501,0.25 q -1.625,0 -2.95,-0.8 -1.325,-0.825 -2.1,-2.225 -0.75,-1.4 -0.75,-3.15 0,-1.75 0.75,-3.15 0.775,-1.4 2.075,-2.225 1.325,-0.825 2.975,-0.825 1.35,0 2.4,0.575 1.075,0.55 1.725,1.55 0.65,0.975 0.725,2.275 v 3.575 q -0.075,1.275 -0.725,2.275 -0.625,1 -1.7,1.575 -1.05,0.55 -2.425,0.55 z m 0.375,-2.125 q 1.675,0 2.7,-1.125 1.025,-1.15 1.025,-2.925 0,-1.225 -0.475,-2.125 -0.45,-0.925 -1.3,-1.425 -0.85,-0.525 -1.975,-0.525 -1.125,0 -2,0.525 -0.85,0.525 -1.35,1.45 -0.475,0.9 -0.475,2.075 0,1.2 0.475,2.125 0.5,0.9 1.375,1.425 0.875,0.525 2,0.525 z m 3.575,1.875 v -3.2 l 0.425,-2.9 -0.425,-2.875 v -2.9 h 2.275 V 155 Z m 9.45002,0.1 -5.15,-11.975 h 2.5 l 3.825,9.375 h -0.8 l 4.025,-9.375 h 2.5 l -5.55,11.975 z m -3.4,4.875 3.5,-7.175 1.25,2.3 -2.25,4.875 z M 206.15014,155 v -6.925 q 0,-1.35 -0.85,-2.225 -0.85,-0.875 -2.2,-0.875 -0.9,0 -1.6,0.4 -0.7,0.4 -1.1,1.1 -0.4,0.7 -0.4,1.6 l -0.925,-0.525 q 0,-1.35 0.6,-2.4 0.6,-1.05 1.675,-1.65 1.075,-0.625 2.425,-0.625 1.35,0 2.375,0.6 1.05,0.6 1.65,1.675 0.6,1.075 0.6,2.475 V 155 Z m -8.4,0 v -17.85 h 2.25 V 155 Z m 15.37501,0 v -16.85 h 2.25 V 155 Z m -2.925,-9.825 v -2.05 h 8.1 v 2.05 z m 15.41247,10.075 q -1.775,0 -3.2,-0.8 -1.425,-0.825 -2.25,-2.225 -0.825,-1.4 -0.825,-3.175 0,-1.75 0.8,-3.15 0.825,-1.4 2.2,-2.2 1.4,-0.825 3.125,-0.825 1.65,0 2.9,0.75 1.275,0.75 1.975,2.075 0.725,1.325 0.725,3 0,0.25 -0.025,0.55 -0.025,0.275 -0.1,0.65 h -10.025 v -1.875 h 8.825 l -0.825,0.725 q 0,-1.2 -0.425,-2.025 -0.425,-0.85 -1.2,-1.3 -0.775,-0.475 -1.875,-0.475 -1.15,0 -2.025,0.5 -0.875,0.5 -1.35,1.4 -0.475,0.9 -0.475,2.125 0,1.25 0.5,2.2 0.5,0.925 1.425,1.45 0.925,0.5 2.125,0.5 1,0 1.825,-0.35 0.85,-0.35 1.45,-1.05 l 1.45,1.475 q -0.85,1 -2.1,1.525 -1.225,0.525 -2.625,0.525 z m 7.92499,-0.25 v -11.875 h 2.25 V 155 Z m 1.125,-14.25 q -0.625,0 -1.025,-0.4 -0.4,-0.425 -0.4,-1.05 0,-0.6 0.4,-1 0.4,-0.425 1.025,-0.425 0.625,0 1.025,0.425 0.4,0.4 0.4,1 0,0.625 -0.4,1.05 -0.4,0.4 -1.025,0.4 z m 8.22502,14.5 q -1,0 -1.9,-0.25 -0.875,-0.275 -1.625,-0.75 -0.75,-0.5 -1.3,-1.175 l 1.45,-1.45 q 0.65,0.8 1.5,1.2 0.85,0.375 1.9,0.375 1.05,0 1.625,-0.35 0.575,-0.375 0.575,-1.025 0,-0.65 -0.475,-1 -0.45,-0.375 -1.175,-0.6 -0.725,-0.25 -1.55,-0.475 -0.8,-0.25 -1.525,-0.625 -0.725,-0.375 -1.2,-1.025 -0.45,-0.65 -0.45,-1.725 0,-1.075 0.525,-1.85 0.525,-0.8 1.45,-1.225 0.95,-0.425 2.275,-0.425 1.4,0 2.475,0.5 1.1,0.475 1.8,1.45 l -1.45,1.45 q -0.5,-0.65 -1.25,-1 -0.725,-0.35 -1.65,-0.35 -0.975,0 -1.5,0.35 -0.5,0.325 -0.5,0.925 0,0.6 0.45,0.925 0.45,0.325 1.175,0.55 0.75,0.225 1.55,0.475 0.8,0.225 1.525,0.625 0.725,0.4 1.175,1.075 0.475,0.675 0.475,1.775 0,1.675 -1.2,2.65 -1.175,0.975 -3.175,0.975 z m 12.325,0 q -1.75,0 -3.15,-0.825 -1.4,-0.825 -2.225,-2.225 -0.825,-1.425 -0.825,-3.175 0,-1.725 0.825,-3.1 0.825,-1.4 2.225,-2.225 1.4,-0.825 3.15,-0.825 1.725,0 3.125,0.825 1.425,0.8 2.25,2.2 0.825,1.4 0.825,3.125 0,1.75 -0.825,3.175 -0.825,1.4 -2.25,2.225 -1.4,0.825 -3.125,0.825 z m 0,-2.175 q 1.125,0 2,-0.525 0.875,-0.525 1.375,-1.425 0.5,-0.925 0.5,-2.1 0,-1.15 -0.525,-2.05 -0.5,-0.9 -1.375,-1.4 -0.85,-0.525 -1.975,-0.525 -1.125,0 -2,0.525 -0.875,0.5 -1.375,1.4 -0.5,0.9 -0.5,2.05 0,1.175 0.5,2.1 0.5,0.9 1.375,1.425 0.875,0.525 2,0.525 z m -2.475,-11.95 q -0.625,0 -1.025,-0.4 -0.4,-0.425 -0.4,-1.05 0,-0.6 0.4,-1 0.4,-0.425 1.025,-0.425 0.625,0 1.025,0.425 0.4,0.4 0.4,1 0,0.625 -0.4,1.05 -0.4,0.4 -1.025,0.4 z m 5,0 q -0.625,0 -1.025,-0.4 -0.4,-0.425 -0.4,-1.05 0,-0.6 0.4,-1 0.4,-0.425 1.025,-0.425 0.625,0 1.025,0.425 0.4,0.4 0.4,1 0,0.625 -0.4,1.05 -0.4,0.4 -1.025,0.4 z M 269.13764,155 v -11.875 h 2.25 V 155 Z m 2.25,-6.775 -0.85,-0.375 q 0,-2.275 1.05,-3.625 1.05,-1.35 3.025,-1.35 0.9,0 1.625,0.325 0.725,0.3 1.35,1.025 l -1.475,1.525 q -0.375,-0.4 -0.825,-0.575 -0.45,-0.175 -1.05,-0.175 -1.25,0 -2.05,0.8 -0.8,0.8 -0.8,2.425 z m 11.47504,6.875 -5.15,-11.975 h 2.5 l 3.825,9.375 h -0.8 l 4.025,-9.375 h 2.5 l -5.55,11.975 z m -3.4,4.875 3.5,-7.175 1.25,2.3 -2.25,4.875 z"
     id="text4"
     style="font-size:25px;font-family:Outfit;fill:#ffffff"
     aria-label="Suomen Palikkayhteisö ry" />
</svg>
