<?xml version="1.0" encoding="UTF-8" standalone="no"?>
<svg
   width="297.595"
   height="132.84"
   viewBox="2.48 -26.135 297.595 132.84"
   version="1.1"
   id="svg3"
   sodipodi:docname="spy-simple-black.svg"
   xmlns:inkscape="http://www.inkscape.org/namespaces/inkscape"
   xmlns:sodipodi="http://sodipodi.sourceforge.net/DTD/sodipodi-0.dtd"
   xmlns="http://www.w3.org/2000/svg"
   xmlns:svg="http://www.w3.org/2000/svg">
  <sodipodi:namedview
     id="namedview3"
     pagecolor="#ffffff"
     bordercolor="#000000"
     borderopacity="0.25"
     inkscape:showpageshadow="2"
     inkscape:pageopacity="0.0"
     inkscape:pagecheckerboard="0"
     inkscape:deskcolor="#d1d1d1" />
  <defs
     id="defs1">
    <style
       id="style1">
      @font-face {
        font-family: 'Outfit';
        src: url('../../../fonts/Outfit-VariableFont_wght.ttf') format('truetype');
        font-weight: 100 900;
      }
    </style>
  </defs>
  <g
     id="text3"
     style="font-weight:700;font-size:155px;font-family:Outfit;letter-spacing:-0.01em"
     aria-label="SPY">
    <path
       d="m 53.4,96.705 q -13.485,0 -23.25,-4.34 Q 20.54,87.87 12.48,78.88 L 28.29,63.225 q 5.27,6.045 11.625,9.455 6.51,3.255 15.035,3.255 7.75,0 11.935,-2.79 4.34,-2.79 4.34,-7.75 0,-4.495 -2.79,-7.285 -2.79,-2.79 -7.44,-4.805 Q 56.5,51.29 50.92,49.43 45.495,47.57 40.07,45.245 34.645,42.765 29.995,39.2 25.5,35.48 22.71,30.055 q -2.79,-5.58 -2.79,-13.95 0,-10.075 4.805,-17.36 4.96,-7.285 13.64,-11.005 8.68,-3.875 19.995,-3.875 11.47,0 20.925,4.03 9.61,4.03 15.81,11.005 L 79.285,14.555 Q 74.325,9.44 69.21,6.96 64.25,4.48 57.895,4.48 51.54,4.48 47.82,6.96 44.1,9.285 44.1,13.78 q 0,4.185 2.79,6.82 2.79,2.48 7.285,4.34 4.65,1.86 10.075,3.72 5.58,1.86 11.005,4.34 5.425,2.48 9.92,6.355 4.65,3.72 7.44,9.61 2.79,5.735 2.79,14.26 0,15.655 -11.16,24.645 -11.16,8.835 -30.845,8.835 z"
       id="path3" />
    <path
       d="m 127.95503,55.165 v -18.91 h 23.56 q 4.495,0 8.215,-1.86 3.72,-1.86 5.89,-5.425 2.17,-3.565 2.17,-8.68 0,-4.96 -2.17,-8.525 -2.17,-3.565 -5.89,-5.425 -3.72,-1.86 -8.215,-1.86 h -23.56 v -18.91 h 27.125 q 10.385,0 18.755,4.185 8.37,4.185 13.175,12.09 4.96,7.75 4.96,18.445 0,10.695 -4.96,18.6 -4.805,7.75 -13.175,12.09 -8.37,4.185 -18.755,4.185 z M 109.35503,95 V -14.43 h 24.335 V 95 Z"
       id="path4" />
    <path
       d="m 229.78007,54.235 -42.16,-68.665 h 28.21 l 32.395,55.49 h -18.135 l 32.395,-55.49 h 27.59 l -42.47,68.665 z M 226.83507,95 V 43.075 h 24.335 V 95 Z"
       id="path5" />
  </g>
</svg>
