<?xml version="1.0" encoding="UTF-8" standalone="no"?>
<svg width="240" height="302" viewBox="0 0 240 302" 
     xmlns="http://www.w3.org/2000/svg">
  <desc>Brick-style blocky version - auto bricks side view</desc>
  <rect x="0" y="212" width="36" height="15" fill="rgb(82,211,216)"/>
  <line x1="0" y1="212" x2="36" y2="212" stroke="rgb(0,0,0)" stroke-width="0.5" opacity="0.3"/>
  <line x1="0" y1="227" x2="36" y2="227" stroke="rgb(0,0,0)" stroke-width="0.5" opacity="0.3"/>
  <line x1="0" y1="212" x2="0" y2="227" stroke="rgb(0,0,0)" stroke-width="0.5" opacity="0.3"/>
  <line x1="36" y1="212" x2="36" y2="227" stroke="rgb(0,0,0)" stroke-width="0.5" opacity="0.3"/>
  <rect x="2.5" y="210" width="7" height="3" fill="rgb(82,211,216)"/>
  <rect x="2.5" y="210" width="7" height="3" fill="none" stroke="rgb(0,0,0)" stroke-width="0.5" opacity="0.2"/>
  <rect x="14.5" y="210" width="7" height="3" fill="rgb(82,211,216)"/>
  <rect x="14.5" y="210" width="7" height="3" fill="none" stroke="rgb(0,0,0)" stroke-width="0.5" opacity="0.2"/>
  <rect x="26.5" y="210" width="7" height="3" fill="rgb(82,211,216)"/>
  <rect x="26.5" y="210" width="7" height="3" fill="none" stroke="rgb(0,0,0)" stroke-width="0.5" opacity="0.2"/>
  <rect x="72" y="212" width="24" height="15" fill="rgb(56,65,157)"/>
  <line x1="72" y1="212" x2="96" y2="212" stroke="rgb(0,0,0)" stroke-width="0.5" opacity="0.3"/>
  <line x1="72" y1="227" x2="96" y2="227" stroke="rgb(0,0,0)" stroke-width="0.5" opacity="0.3"/>
  <line x1="72" y1="212" x2="72" y2="227" stroke="rgb(0,0,0)" stroke-width="0.5" opacity="0.3"/>
  <line x1="96" y1="212" x2="96" y2="227" stroke="rgb(0,0,0)" stroke-width="0.5" opacity="0.3"/>
  <rect x="74.5" y="210" width="7" height="3" fill="rgb(56,65,157)"/>
  <rect x="74.5" y="210" width="7" height="3" fill="none" stroke="rgb(0,0,0)" stroke-width="0.5" opacity="0.2"/>
  <rect x="86.5" y="210" width="7" height="3" fill="rgb(56,65,157)"/>
  <rect x="86.5" y="210" width="7" height="3" fill="none" stroke="rgb(0,0,0)" stroke-width="0.5" opacity="0.2"/>
  <rect x="204" y="212" width="12" height="15" fill="rgb(55,136,189)"/>
  <line x1="204" y1="212" x2="216" y2="212" stroke="rgb(0,0,0)" stroke-width="0.5" opacity="0.3"/>
  <line x1="204" y1="227" x2="216" y2="227" stroke="rgb(0,0,0)" stroke-width="0.5" opacity="0.3"/>
  <line x1="204" y1="212" x2="204" y2="227" stroke="rgb(0,0,0)" stroke-width="0.5" opacity="0.3"/>
  <line x1="216" y1="212" x2="216" y2="227" stroke="rgb(0,0,0)" stroke-width="0.5" opacity="0.3"/>
  <rect x="206.5" y="210" width="7" height="3" fill="rgb(55,136,189)"/>
  <rect x="206.5" y="210" width="7" height="3" fill="none" stroke="rgb(0,0,0)" stroke-width="0.5" opacity="0.2"/>
  <rect x="216" y="212" width="24" height="15" fill="rgb(56,135,190)"/>
  <line x1="216" y1="212" x2="240" y2="212" stroke="rgb(0,0,0)" stroke-width="0.5" opacity="0.3"/>
  <line x1="216" y1="227" x2="240" y2="227" stroke="rgb(0,0,0)" stroke-width="0.5" opacity="0.3"/>
  <line x1="216" y1="212" x2="216" y2="227" stroke="rgb(0,0,0)" stroke-width="0.5" opacity="0.3"/>
  <line x1="240" y1="212" x2="240" y2="227" stroke="rgb(0,0,0)" stroke-width="0.5" opacity="0.3"/>
  <rect x="218.5" y="210" width="7" height="3" fill="rgb(56,135,190)"/>
  <rect x="218.5" y="210" width="7" height="3" fill="none" stroke="rgb(0,0,0)" stroke-width="0.5" opacity="0.2"/>
  <rect x="230.5" y="210" width="7" height="3" fill="rgb(56,135,190)"/>
  <rect x="230.5" y="210" width="7" height="3" fill="none" stroke="rgb(0,0,0)" stroke-width="0.5" opacity="0.2"/>
  <rect x="0" y="197" width="24" height="15" fill="rgb(82,211,216)"/>
  <line x1="0" y1="197" x2="24" y2="197" stroke="rgb(0,0,0)" stroke-width="0.5" opacity="0.3"/>
  <line x1="0" y1="212" x2="24" y2="212" stroke="rgb(0,0,0)" stroke-width="0.5" opacity="0.3"/>
  <line x1="0" y1="197" x2="0" y2="212" stroke="rgb(0,0,0)" stroke-width="0.5" opacity="0.3"/>
  <line x1="24" y1="197" x2="24" y2="212" stroke="rgb(0,0,0)" stroke-width="0.5" opacity="0.3"/>
  <rect x="2.5" y="195" width="7" height="3" fill="rgb(82,211,216)"/>
  <rect x="2.5" y="195" width="7" height="3" fill="none" stroke="rgb(0,0,0)" stroke-width="0.5" opacity="0.2"/>
  <rect x="14.5" y="195" width="7" height="3" fill="rgb(82,211,216)"/>
  <rect x="14.5" y="195" width="7" height="3" fill="none" stroke="rgb(0,0,0)" stroke-width="0.5" opacity="0.2"/>
  <rect x="24" y="197" width="24" height="15" fill="rgb(82,211,216)"/>
  <line x1="24" y1="197" x2="48" y2="197" stroke="rgb(0,0,0)" stroke-width="0.5" opacity="0.3"/>
  <line x1="24" y1="212" x2="48" y2="212" stroke="rgb(0,0,0)" stroke-width="0.5" opacity="0.3"/>
  <line x1="24" y1="197" x2="24" y2="212" stroke="rgb(0,0,0)" stroke-width="0.5" opacity="0.3"/>
  <line x1="48" y1="197" x2="48" y2="212" stroke="rgb(0,0,0)" stroke-width="0.5" opacity="0.3"/>
  <rect x="26.5" y="195" width="7" height="3" fill="rgb(82,211,216)"/>
  <rect x="26.5" y="195" width="7" height="3" fill="none" stroke="rgb(0,0,0)" stroke-width="0.5" opacity="0.2"/>
  <rect x="38.5" y="195" width="7" height="3" fill="rgb(82,211,216)"/>
  <rect x="38.5" y="195" width="7" height="3" fill="none" stroke="rgb(0,0,0)" stroke-width="0.5" opacity="0.2"/>
  <rect x="72" y="197" width="24" height="15" fill="rgb(56,65,157)"/>
  <line x1="72" y1="197" x2="96" y2="197" stroke="rgb(0,0,0)" stroke-width="0.5" opacity="0.3"/>
  <line x1="72" y1="212" x2="96" y2="212" stroke="rgb(0,0,0)" stroke-width="0.5" opacity="0.3"/>
  <line x1="72" y1="197" x2="72" y2="212" stroke="rgb(0,0,0)" stroke-width="0.5" opacity="0.3"/>
  <line x1="96" y1="197" x2="96" y2="212" stroke="rgb(0,0,0)" stroke-width="0.5" opacity="0.3"/>
  <rect x="74.5" y="195" width="7" height="3" fill="rgb(56,65,157)"/>
  <rect x="74.5" y="195" width="7" height="3" fill="none" stroke="rgb(0,0,0)" stroke-width="0.5" opacity="0.2"/>
  <rect x="86.5" y="195" width="7" height="3" fill="rgb(56,65,157)"/>
  <rect x="86.5" y="195" width="7" height="3" fill="none" stroke="rgb(0,0,0)" stroke-width="0.5" opacity="0.2"/>
  <rect x="204" y="197" width="12" height="15" fill="rgb(55,136,189)"/>
  <line x1="204" y1="197" x2="216" y2="197" stroke="rgb(0,0,0)" stroke-width="0.5" opacity="0.3"/>
  <line x1="204" y1="212" x2="216" y2="212" stroke="rgb(0,0,0)" stroke-width="0.5" opacity="0.3"/>
  <line x1="204" y1="197" x2="204" y2="212" stroke="rgb(0,0,0)" stroke-width="0.5" opacity="0.3"/>
  <line x1="216" y1="197" x2="216" y2="212" stroke="rgb(0,0,0)" stroke-width="0.5" opacity="0.3"/>
  <rect x="206.5" y="195" width="7" height="3" fill="rgb(55,136,189)"/>
  <rect x="206.5" y="195" width="7" height="3" fill="none" stroke="rgb(0,0,0)" stroke-width="0.5" opacity="0.2"/>
  <rect x="216" y="197" width="24" height="15" fill="rgb(56,135,190)"/>
  <line x1="216" y1="197" x2="240" y2="197" stroke="rgb(0,0,0)" stroke-width="0.5" opacity="0.3"/>
  <line x1="216" y1="212" x2="240" y2="212" stroke="rgb(0,0,0)" stroke-width="0.5" opacity="0.3"/>
  <line x1="216" y1="197" x2="216" y2="212" stroke="rgb(0,0,0)" stroke-width="0.5" opacity="0.3"/>
  <line x1="240" y1="197" x2="240" y2="212" stroke="rgb(0,0,0)" stroke-width="0.5" opacity="0.3"/>
  <rect x="218.5" y="195" width="7" height="3" fill="rgb(56,135,190)"/>
  <rect x="218.5" y="195" width="7" height="3" fill="none" stroke="rgb(0,0,0)" stroke-width="0.5" opacity="0.2"/>
  <rect x="230.5" y="195" width="7" height="3" fill="rgb(56,135,190)"/>
  <rect x="230.5" y="195" width="7" height="3" fill="none" stroke="rgb(0,0,0)" stroke-width="0.5" opacity="0.2"/>
  <rect x="24" y="182" width="12" height="15" fill="rgb(82,211,216)"/>
  <line x1="24" y1="182" x2="36" y2="182" stroke="rgb(0,0,0)" stroke-width="0.5" opacity="0.3"/>
  <line x1="24" y1="197" x2="36" y2="197" stroke="rgb(0,0,0)" stroke-width="0.5" opacity="0.3"/>
  <line x1="24" y1="182" x2="24" y2="197" stroke="rgb(0,0,0)" stroke-width="0.5" opacity="0.3"/>
  <line x1="36" y1="182" x2="36" y2="197" stroke="rgb(0,0,0)" stroke-width="0.5" opacity="0.3"/>
  <rect x="26.5" y="180" width="7" height="3" fill="rgb(82,211,216)"/>
  <rect x="26.5" y="180" width="7" height="3" fill="none" stroke="rgb(0,0,0)" stroke-width="0.5" opacity="0.2"/>
  <rect x="36" y="182" width="12" height="15" fill="rgb(82,211,216)"/>
  <line x1="36" y1="182" x2="48" y2="182" stroke="rgb(0,0,0)" stroke-width="0.5" opacity="0.3"/>
  <line x1="36" y1="197" x2="48" y2="197" stroke="rgb(0,0,0)" stroke-width="0.5" opacity="0.3"/>
  <line x1="36" y1="182" x2="36" y2="197" stroke="rgb(0,0,0)" stroke-width="0.5" opacity="0.3"/>
  <line x1="48" y1="182" x2="48" y2="197" stroke="rgb(0,0,0)" stroke-width="0.5" opacity="0.3"/>
  <rect x="38.5" y="180" width="7" height="3" fill="rgb(82,211,216)"/>
  <rect x="38.5" y="180" width="7" height="3" fill="none" stroke="rgb(0,0,0)" stroke-width="0.5" opacity="0.2"/>
  <rect x="72" y="182" width="24" height="15" fill="rgb(56,65,157)"/>
  <line x1="72" y1="182" x2="96" y2="182" stroke="rgb(0,0,0)" stroke-width="0.5" opacity="0.3"/>
  <line x1="72" y1="197" x2="96" y2="197" stroke="rgb(0,0,0)" stroke-width="0.5" opacity="0.3"/>
  <line x1="72" y1="182" x2="72" y2="197" stroke="rgb(0,0,0)" stroke-width="0.5" opacity="0.3"/>
  <line x1="96" y1="182" x2="96" y2="197" stroke="rgb(0,0,0)" stroke-width="0.5" opacity="0.3"/>
  <rect x="74.5" y="180" width="7" height="3" fill="rgb(56,65,157)"/>
  <rect x="74.5" y="180" width="7" height="3" fill="none" stroke="rgb(0,0,0)" stroke-width="0.5" opacity="0.2"/>
  <rect x="86.5" y="180" width="7" height="3" fill="rgb(56,65,157)"/>
  <rect x="86.5" y="180" width="7" height="3" fill="none" stroke="rgb(0,0,0)" stroke-width="0.5" opacity="0.2"/>
  <rect x="204" y="182" width="12" height="15" fill="rgb(55,136,189)"/>
  <line x1="204" y1="182" x2="216" y2="182" stroke="rgb(0,0,0)" stroke-width="0.5" opacity="0.3"/>
  <line x1="204" y1="197" x2="216" y2="197" stroke="rgb(0,0,0)" stroke-width="0.5" opacity="0.3"/>
  <line x1="204" y1="182" x2="204" y2="197" stroke="rgb(0,0,0)" stroke-width="0.5" opacity="0.3"/>
  <line x1="216" y1="182" x2="216" y2="197" stroke="rgb(0,0,0)" stroke-width="0.5" opacity="0.3"/>
  <rect x="206.5" y="180" width="7" height="3" fill="rgb(55,136,189)"/>
  <rect x="206.5" y="180" width="7" height="3" fill="none" stroke="rgb(0,0,0)" stroke-width="0.5" opacity="0.2"/>
  <rect x="216" y="182" width="24" height="15" fill="rgb(56,135,190)"/>
  <line x1="216" y1="182" x2="240" y2="182" stroke="rgb(0,0,0)" stroke-width="0.5" opacity="0.3"/>
  <line x1="216" y1="197" x2="240" y2="197" stroke="rgb(0,0,0)" stroke-width="0.5" opacity="0.3"/>
  <line x1="216" y1="182" x2="216" y2="197" stroke="rgb(0,0,0)" stroke-width="0.5" opacity="0.3"/>
  <line x1="240" y1="182" x2="240" y2="197" stroke="rgb(0,0,0)" stroke-width="0.5" opacity="0.3"/>
  <rect x="218.5" y="180" width="7" height="3" fill="rgb(56,135,190)"/>
  <rect x="218.5" y="180" width="7" height="3" fill="none" stroke="rgb(0,0,0)" stroke-width="0.5" opacity="0.2"/>
  <rect x="230.5" y="180" width="7" height="3" fill="rgb(56,135,190)"/>
  <rect x="230.5" y="180" width="7" height="3" fill="none" stroke="rgb(0,0,0)" stroke-width="0.5" opacity="0.2"/>
  <rect x="24" y="167" width="24" height="15" fill="rgb(82,211,216)"/>
  <line x1="24" y1="167" x2="48" y2="167" stroke="rgb(0,0,0)" stroke-width="0.5" opacity="0.3"/>
  <line x1="24" y1="182" x2="48" y2="182" stroke="rgb(0,0,0)" stroke-width="0.5" opacity="0.3"/>
  <line x1="24" y1="167" x2="24" y2="182" stroke="rgb(0,0,0)" stroke-width="0.5" opacity="0.3"/>
  <line x1="48" y1="167" x2="48" y2="182" stroke="rgb(0,0,0)" stroke-width="0.5" opacity="0.3"/>
  <rect x="26.5" y="165" width="7" height="3" fill="rgb(82,211,216)"/>
  <rect x="26.5" y="165" width="7" height="3" fill="none" stroke="rgb(0,0,0)" stroke-width="0.5" opacity="0.2"/>
  <rect x="38.5" y="165" width="7" height="3" fill="rgb(82,211,216)"/>
  <rect x="38.5" y="165" width="7" height="3" fill="none" stroke="rgb(0,0,0)" stroke-width="0.5" opacity="0.2"/>
  <rect x="72" y="167" width="24" height="15" fill="rgb(56,65,157)"/>
  <line x1="72" y1="167" x2="96" y2="167" stroke="rgb(0,0,0)" stroke-width="0.5" opacity="0.3"/>
  <line x1="72" y1="182" x2="96" y2="182" stroke="rgb(0,0,0)" stroke-width="0.5" opacity="0.3"/>
  <line x1="72" y1="167" x2="72" y2="182" stroke="rgb(0,0,0)" stroke-width="0.5" opacity="0.3"/>
  <line x1="96" y1="167" x2="96" y2="182" stroke="rgb(0,0,0)" stroke-width="0.5" opacity="0.3"/>
  <rect x="74.5" y="165" width="7" height="3" fill="rgb(56,65,157)"/>
  <rect x="74.5" y="165" width="7" height="3" fill="none" stroke="rgb(0,0,0)" stroke-width="0.5" opacity="0.2"/>
  <rect x="86.5" y="165" width="7" height="3" fill="rgb(56,65,157)"/>
  <rect x="86.5" y="165" width="7" height="3" fill="none" stroke="rgb(0,0,0)" stroke-width="0.5" opacity="0.2"/>
  <rect x="204" y="167" width="12" height="15" fill="rgb(55,136,189)"/>
  <line x1="204" y1="167" x2="216" y2="167" stroke="rgb(0,0,0)" stroke-width="0.5" opacity="0.3"/>
  <line x1="204" y1="182" x2="216" y2="182" stroke="rgb(0,0,0)" stroke-width="0.5" opacity="0.3"/>
  <line x1="204" y1="167" x2="204" y2="182" stroke="rgb(0,0,0)" stroke-width="0.5" opacity="0.3"/>
  <line x1="216" y1="167" x2="216" y2="182" stroke="rgb(0,0,0)" stroke-width="0.5" opacity="0.3"/>
  <rect x="206.5" y="165" width="7" height="3" fill="rgb(55,136,189)"/>
  <rect x="206.5" y="165" width="7" height="3" fill="none" stroke="rgb(0,0,0)" stroke-width="0.5" opacity="0.2"/>
  <rect x="216" y="167" width="24" height="15" fill="rgb(56,135,190)"/>
  <line x1="216" y1="167" x2="240" y2="167" stroke="rgb(0,0,0)" stroke-width="0.5" opacity="0.3"/>
  <line x1="216" y1="182" x2="240" y2="182" stroke="rgb(0,0,0)" stroke-width="0.5" opacity="0.3"/>
  <line x1="216" y1="167" x2="216" y2="182" stroke="rgb(0,0,0)" stroke-width="0.5" opacity="0.3"/>
  <line x1="240" y1="167" x2="240" y2="182" stroke="rgb(0,0,0)" stroke-width="0.5" opacity="0.3"/>
  <rect x="218.5" y="165" width="7" height="3" fill="rgb(56,135,190)"/>
  <rect x="218.5" y="165" width="7" height="3" fill="none" stroke="rgb(0,0,0)" stroke-width="0.5" opacity="0.2"/>
  <rect x="230.5" y="165" width="7" height="3" fill="rgb(56,135,190)"/>
  <rect x="230.5" y="165" width="7" height="3" fill="none" stroke="rgb(0,0,0)" stroke-width="0.5" opacity="0.2"/>
  <rect x="0" y="152" width="12" height="15" fill="rgb(82,211,216)"/>
  <line x1="0" y1="152" x2="12" y2="152" stroke="rgb(0,0,0)" stroke-width="0.5" opacity="0.3"/>
  <line x1="0" y1="167" x2="12" y2="167" stroke="rgb(0,0,0)" stroke-width="0.5" opacity="0.3"/>
  <line x1="0" y1="152" x2="0" y2="167" stroke="rgb(0,0,0)" stroke-width="0.5" opacity="0.3"/>
  <line x1="12" y1="152" x2="12" y2="167" stroke="rgb(0,0,0)" stroke-width="0.5" opacity="0.3"/>
  <rect x="2.5" y="150" width="7" height="3" fill="rgb(82,211,216)"/>
  <rect x="2.5" y="150" width="7" height="3" fill="none" stroke="rgb(0,0,0)" stroke-width="0.5" opacity="0.2"/>
  <rect x="12" y="152" width="36" height="15" fill="rgb(82,211,216)"/>
  <line x1="12" y1="152" x2="48" y2="152" stroke="rgb(0,0,0)" stroke-width="0.5" opacity="0.3"/>
  <line x1="12" y1="167" x2="48" y2="167" stroke="rgb(0,0,0)" stroke-width="0.5" opacity="0.3"/>
  <line x1="12" y1="152" x2="12" y2="167" stroke="rgb(0,0,0)" stroke-width="0.5" opacity="0.3"/>
  <line x1="48" y1="152" x2="48" y2="167" stroke="rgb(0,0,0)" stroke-width="0.5" opacity="0.3"/>
  <rect x="14.5" y="150" width="7" height="3" fill="rgb(82,211,216)"/>
  <rect x="14.5" y="150" width="7" height="3" fill="none" stroke="rgb(0,0,0)" stroke-width="0.5" opacity="0.2"/>
  <rect x="26.5" y="150" width="7" height="3" fill="rgb(82,211,216)"/>
  <rect x="26.5" y="150" width="7" height="3" fill="none" stroke="rgb(0,0,0)" stroke-width="0.5" opacity="0.2"/>
  <rect x="38.5" y="150" width="7" height="3" fill="rgb(82,211,216)"/>
  <rect x="38.5" y="150" width="7" height="3" fill="none" stroke="rgb(0,0,0)" stroke-width="0.5" opacity="0.2"/>
  <rect x="72" y="152" width="36" height="15" fill="rgb(56,65,157)"/>
  <line x1="72" y1="152" x2="108" y2="152" stroke="rgb(0,0,0)" stroke-width="0.5" opacity="0.3"/>
  <line x1="72" y1="167" x2="108" y2="167" stroke="rgb(0,0,0)" stroke-width="0.5" opacity="0.3"/>
  <line x1="72" y1="152" x2="72" y2="167" stroke="rgb(0,0,0)" stroke-width="0.5" opacity="0.3"/>
  <line x1="108" y1="152" x2="108" y2="167" stroke="rgb(0,0,0)" stroke-width="0.5" opacity="0.3"/>
  <rect x="74.5" y="150" width="7" height="3" fill="rgb(56,65,157)"/>
  <rect x="74.5" y="150" width="7" height="3" fill="none" stroke="rgb(0,0,0)" stroke-width="0.5" opacity="0.2"/>
  <rect x="86.5" y="150" width="7" height="3" fill="rgb(56,65,157)"/>
  <rect x="86.5" y="150" width="7" height="3" fill="none" stroke="rgb(0,0,0)" stroke-width="0.5" opacity="0.2"/>
  <rect x="98.5" y="150" width="7" height="3" fill="rgb(56,65,157)"/>
  <rect x="98.5" y="150" width="7" height="3" fill="none" stroke="rgb(0,0,0)" stroke-width="0.5" opacity="0.2"/>
  <rect x="108" y="152" width="36" height="15" fill="rgb(56,65,157)"/>
  <line x1="108" y1="152" x2="144" y2="152" stroke="rgb(0,0,0)" stroke-width="0.5" opacity="0.3"/>
  <line x1="108" y1="167" x2="144" y2="167" stroke="rgb(0,0,0)" stroke-width="0.5" opacity="0.3"/>
  <line x1="108" y1="152" x2="108" y2="167" stroke="rgb(0,0,0)" stroke-width="0.5" opacity="0.3"/>
  <line x1="144" y1="152" x2="144" y2="167" stroke="rgb(0,0,0)" stroke-width="0.5" opacity="0.3"/>
  <rect x="110.5" y="150" width="7" height="3" fill="rgb(56,65,157)"/>
  <rect x="110.5" y="150" width="7" height="3" fill="none" stroke="rgb(0,0,0)" stroke-width="0.5" opacity="0.2"/>
  <rect x="122.5" y="150" width="7" height="3" fill="rgb(56,65,157)"/>
  <rect x="122.5" y="150" width="7" height="3" fill="none" stroke="rgb(0,0,0)" stroke-width="0.5" opacity="0.2"/>
  <rect x="134.5" y="150" width="7" height="3" fill="rgb(56,65,157)"/>
  <rect x="134.5" y="150" width="7" height="3" fill="none" stroke="rgb(0,0,0)" stroke-width="0.5" opacity="0.2"/>
  <rect x="144" y="152" width="12" height="15" fill="rgb(55,65,158)"/>
  <line x1="144" y1="152" x2="156" y2="152" stroke="rgb(0,0,0)" stroke-width="0.5" opacity="0.3"/>
  <line x1="144" y1="167" x2="156" y2="167" stroke="rgb(0,0,0)" stroke-width="0.5" opacity="0.3"/>
  <line x1="144" y1="152" x2="144" y2="167" stroke="rgb(0,0,0)" stroke-width="0.5" opacity="0.3"/>
  <line x1="156" y1="152" x2="156" y2="167" stroke="rgb(0,0,0)" stroke-width="0.5" opacity="0.3"/>
  <rect x="146.5" y="150" width="7" height="3" fill="rgb(55,65,158)"/>
  <rect x="146.5" y="150" width="7" height="3" fill="none" stroke="rgb(0,0,0)" stroke-width="0.5" opacity="0.2"/>
  <rect x="204" y="152" width="12" height="15" fill="rgb(56,136,190)"/>
  <line x1="204" y1="152" x2="216" y2="152" stroke="rgb(0,0,0)" stroke-width="0.5" opacity="0.3"/>
  <line x1="204" y1="167" x2="216" y2="167" stroke="rgb(0,0,0)" stroke-width="0.5" opacity="0.3"/>
  <line x1="204" y1="152" x2="204" y2="167" stroke="rgb(0,0,0)" stroke-width="0.5" opacity="0.3"/>
  <line x1="216" y1="152" x2="216" y2="167" stroke="rgb(0,0,0)" stroke-width="0.5" opacity="0.3"/>
  <rect x="206.5" y="150" width="7" height="3" fill="rgb(56,136,190)"/>
  <rect x="206.5" y="150" width="7" height="3" fill="none" stroke="rgb(0,0,0)" stroke-width="0.5" opacity="0.2"/>
  <rect x="216" y="152" width="24" height="15" fill="rgb(56,135,190)"/>
  <line x1="216" y1="152" x2="240" y2="152" stroke="rgb(0,0,0)" stroke-width="0.5" opacity="0.3"/>
  <line x1="216" y1="167" x2="240" y2="167" stroke="rgb(0,0,0)" stroke-width="0.5" opacity="0.3"/>
  <line x1="216" y1="152" x2="216" y2="167" stroke="rgb(0,0,0)" stroke-width="0.5" opacity="0.3"/>
  <line x1="240" y1="152" x2="240" y2="167" stroke="rgb(0,0,0)" stroke-width="0.5" opacity="0.3"/>
  <rect x="218.5" y="150" width="7" height="3" fill="rgb(56,135,190)"/>
  <rect x="218.5" y="150" width="7" height="3" fill="none" stroke="rgb(0,0,0)" stroke-width="0.5" opacity="0.2"/>
  <rect x="230.5" y="150" width="7" height="3" fill="rgb(56,135,190)"/>
  <rect x="230.5" y="150" width="7" height="3" fill="none" stroke="rgb(0,0,0)" stroke-width="0.5" opacity="0.2"/>
  <rect x="0" y="137" width="24" height="15" fill="rgb(82,211,216)"/>
  <line x1="0" y1="137" x2="24" y2="137" stroke="rgb(0,0,0)" stroke-width="0.5" opacity="0.3"/>
  <line x1="0" y1="152" x2="24" y2="152" stroke="rgb(0,0,0)" stroke-width="0.5" opacity="0.3"/>
  <line x1="0" y1="137" x2="0" y2="152" stroke="rgb(0,0,0)" stroke-width="0.5" opacity="0.3"/>
  <line x1="24" y1="137" x2="24" y2="152" stroke="rgb(0,0,0)" stroke-width="0.5" opacity="0.3"/>
  <rect x="2.5" y="135" width="7" height="3" fill="rgb(82,211,216)"/>
  <rect x="2.5" y="135" width="7" height="3" fill="none" stroke="rgb(0,0,0)" stroke-width="0.5" opacity="0.2"/>
  <rect x="14.5" y="135" width="7" height="3" fill="rgb(82,211,216)"/>
  <rect x="14.5" y="135" width="7" height="3" fill="none" stroke="rgb(0,0,0)" stroke-width="0.5" opacity="0.2"/>
  <rect x="24" y="137" width="12" height="15" fill="rgb(82,211,216)"/>
  <line x1="24" y1="137" x2="36" y2="137" stroke="rgb(0,0,0)" stroke-width="0.5" opacity="0.3"/>
  <line x1="24" y1="152" x2="36" y2="152" stroke="rgb(0,0,0)" stroke-width="0.5" opacity="0.3"/>
  <line x1="24" y1="137" x2="24" y2="152" stroke="rgb(0,0,0)" stroke-width="0.5" opacity="0.3"/>
  <line x1="36" y1="137" x2="36" y2="152" stroke="rgb(0,0,0)" stroke-width="0.5" opacity="0.3"/>
  <rect x="26.5" y="135" width="7" height="3" fill="rgb(82,211,216)"/>
  <rect x="26.5" y="135" width="7" height="3" fill="none" stroke="rgb(0,0,0)" stroke-width="0.5" opacity="0.2"/>
  <rect x="72" y="137" width="48" height="15" fill="rgb(56,65,157)"/>
  <line x1="72" y1="137" x2="120" y2="137" stroke="rgb(0,0,0)" stroke-width="0.5" opacity="0.3"/>
  <line x1="72" y1="152" x2="120" y2="152" stroke="rgb(0,0,0)" stroke-width="0.5" opacity="0.3"/>
  <line x1="72" y1="137" x2="72" y2="152" stroke="rgb(0,0,0)" stroke-width="0.5" opacity="0.3"/>
  <line x1="120" y1="137" x2="120" y2="152" stroke="rgb(0,0,0)" stroke-width="0.5" opacity="0.3"/>
  <rect x="74.5" y="135" width="7" height="3" fill="rgb(56,65,157)"/>
  <rect x="74.5" y="135" width="7" height="3" fill="none" stroke="rgb(0,0,0)" stroke-width="0.5" opacity="0.2"/>
  <rect x="86.5" y="135" width="7" height="3" fill="rgb(56,65,157)"/>
  <rect x="86.5" y="135" width="7" height="3" fill="none" stroke="rgb(0,0,0)" stroke-width="0.5" opacity="0.2"/>
  <rect x="98.5" y="135" width="7" height="3" fill="rgb(56,65,157)"/>
  <rect x="98.5" y="135" width="7" height="3" fill="none" stroke="rgb(0,0,0)" stroke-width="0.5" opacity="0.2"/>
  <rect x="110.5" y="135" width="7" height="3" fill="rgb(56,65,157)"/>
  <rect x="110.5" y="135" width="7" height="3" fill="none" stroke="rgb(0,0,0)" stroke-width="0.5" opacity="0.2"/>
  <rect x="120" y="137" width="36" height="15" fill="rgb(56,65,157)"/>
  <line x1="120" y1="137" x2="156" y2="137" stroke="rgb(0,0,0)" stroke-width="0.5" opacity="0.3"/>
  <line x1="120" y1="152" x2="156" y2="152" stroke="rgb(0,0,0)" stroke-width="0.5" opacity="0.3"/>
  <line x1="120" y1="137" x2="120" y2="152" stroke="rgb(0,0,0)" stroke-width="0.5" opacity="0.3"/>
  <line x1="156" y1="137" x2="156" y2="152" stroke="rgb(0,0,0)" stroke-width="0.5" opacity="0.3"/>
  <rect x="122.5" y="135" width="7" height="3" fill="rgb(56,65,157)"/>
  <rect x="122.5" y="135" width="7" height="3" fill="none" stroke="rgb(0,0,0)" stroke-width="0.5" opacity="0.2"/>
  <rect x="134.5" y="135" width="7" height="3" fill="rgb(56,65,157)"/>
  <rect x="134.5" y="135" width="7" height="3" fill="none" stroke="rgb(0,0,0)" stroke-width="0.5" opacity="0.2"/>
  <rect x="146.5" y="135" width="7" height="3" fill="rgb(56,65,157)"/>
  <rect x="146.5" y="135" width="7" height="3" fill="none" stroke="rgb(0,0,0)" stroke-width="0.5" opacity="0.2"/>
  <rect x="204" y="137" width="36" height="15" fill="rgb(56,135,190)"/>
  <line x1="204" y1="137" x2="240" y2="137" stroke="rgb(0,0,0)" stroke-width="0.5" opacity="0.3"/>
  <line x1="204" y1="152" x2="240" y2="152" stroke="rgb(0,0,0)" stroke-width="0.5" opacity="0.3"/>
  <line x1="204" y1="137" x2="204" y2="152" stroke="rgb(0,0,0)" stroke-width="0.5" opacity="0.3"/>
  <line x1="240" y1="137" x2="240" y2="152" stroke="rgb(0,0,0)" stroke-width="0.5" opacity="0.3"/>
  <rect x="206.5" y="135" width="7" height="3" fill="rgb(56,135,190)"/>
  <rect x="206.5" y="135" width="7" height="3" fill="none" stroke="rgb(0,0,0)" stroke-width="0.5" opacity="0.2"/>
  <rect x="218.5" y="135" width="7" height="3" fill="rgb(56,135,190)"/>
  <rect x="218.5" y="135" width="7" height="3" fill="none" stroke="rgb(0,0,0)" stroke-width="0.5" opacity="0.2"/>
  <rect x="230.5" y="135" width="7" height="3" fill="rgb(56,135,190)"/>
  <rect x="230.5" y="135" width="7" height="3" fill="none" stroke="rgb(0,0,0)" stroke-width="0.5" opacity="0.2"/>
  <rect x="0" y="122" width="12" height="15" fill="rgb(82,211,216)"/>
  <line x1="0" y1="122" x2="12" y2="122" stroke="rgb(0,0,0)" stroke-width="0.5" opacity="0.3"/>
  <line x1="0" y1="137" x2="12" y2="137" stroke="rgb(0,0,0)" stroke-width="0.5" opacity="0.3"/>
  <line x1="0" y1="122" x2="0" y2="137" stroke="rgb(0,0,0)" stroke-width="0.5" opacity="0.3"/>
  <line x1="12" y1="122" x2="12" y2="137" stroke="rgb(0,0,0)" stroke-width="0.5" opacity="0.3"/>
  <rect x="2.5" y="120" width="7" height="3" fill="rgb(82,211,216)"/>
  <rect x="2.5" y="120" width="7" height="3" fill="none" stroke="rgb(0,0,0)" stroke-width="0.5" opacity="0.2"/>
  <rect x="72" y="122" width="24" height="15" fill="rgb(56,65,157)"/>
  <line x1="72" y1="122" x2="96" y2="122" stroke="rgb(0,0,0)" stroke-width="0.5" opacity="0.3"/>
  <line x1="72" y1="137" x2="96" y2="137" stroke="rgb(0,0,0)" stroke-width="0.5" opacity="0.3"/>
  <line x1="72" y1="122" x2="72" y2="137" stroke="rgb(0,0,0)" stroke-width="0.5" opacity="0.3"/>
  <line x1="96" y1="122" x2="96" y2="137" stroke="rgb(0,0,0)" stroke-width="0.5" opacity="0.3"/>
  <rect x="74.5" y="120" width="7" height="3" fill="rgb(56,65,157)"/>
  <rect x="74.5" y="120" width="7" height="3" fill="none" stroke="rgb(0,0,0)" stroke-width="0.5" opacity="0.2"/>
  <rect x="86.5" y="120" width="7" height="3" fill="rgb(56,65,157)"/>
  <rect x="86.5" y="120" width="7" height="3" fill="none" stroke="rgb(0,0,0)" stroke-width="0.5" opacity="0.2"/>
  <rect x="132" y="122" width="36" height="15" fill="rgb(56,65,157)"/>
  <line x1="132" y1="122" x2="168" y2="122" stroke="rgb(0,0,0)" stroke-width="0.5" opacity="0.3"/>
  <line x1="132" y1="137" x2="168" y2="137" stroke="rgb(0,0,0)" stroke-width="0.5" opacity="0.3"/>
  <line x1="132" y1="122" x2="132" y2="137" stroke="rgb(0,0,0)" stroke-width="0.5" opacity="0.3"/>
  <line x1="168" y1="122" x2="168" y2="137" stroke="rgb(0,0,0)" stroke-width="0.5" opacity="0.3"/>
  <rect x="134.5" y="120" width="7" height="3" fill="rgb(56,65,157)"/>
  <rect x="134.5" y="120" width="7" height="3" fill="none" stroke="rgb(0,0,0)" stroke-width="0.5" opacity="0.2"/>
  <rect x="146.5" y="120" width="7" height="3" fill="rgb(56,65,157)"/>
  <rect x="146.5" y="120" width="7" height="3" fill="none" stroke="rgb(0,0,0)" stroke-width="0.5" opacity="0.2"/>
  <rect x="158.5" y="120" width="7" height="3" fill="rgb(56,65,157)"/>
  <rect x="158.5" y="120" width="7" height="3" fill="none" stroke="rgb(0,0,0)" stroke-width="0.5" opacity="0.2"/>
  <rect x="192" y="122" width="48" height="15" fill="rgb(56,135,190)"/>
  <line x1="192" y1="122" x2="240" y2="122" stroke="rgb(0,0,0)" stroke-width="0.5" opacity="0.3"/>
  <line x1="192" y1="137" x2="240" y2="137" stroke="rgb(0,0,0)" stroke-width="0.5" opacity="0.3"/>
  <line x1="192" y1="122" x2="192" y2="137" stroke="rgb(0,0,0)" stroke-width="0.5" opacity="0.3"/>
  <line x1="240" y1="122" x2="240" y2="137" stroke="rgb(0,0,0)" stroke-width="0.5" opacity="0.3"/>
  <rect x="194.5" y="120" width="7" height="3" fill="rgb(56,135,190)"/>
  <rect x="194.5" y="120" width="7" height="3" fill="none" stroke="rgb(0,0,0)" stroke-width="0.5" opacity="0.2"/>
  <rect x="206.5" y="120" width="7" height="3" fill="rgb(56,135,190)"/>
  <rect x="206.5" y="120" width="7" height="3" fill="none" stroke="rgb(0,0,0)" stroke-width="0.5" opacity="0.2"/>
  <rect x="218.5" y="120" width="7" height="3" fill="rgb(56,135,190)"/>
  <rect x="218.5" y="120" width="7" height="3" fill="none" stroke="rgb(0,0,0)" stroke-width="0.5" opacity="0.2"/>
  <rect x="230.5" y="120" width="7" height="3" fill="rgb(56,135,190)"/>
  <rect x="230.5" y="120" width="7" height="3" fill="none" stroke="rgb(0,0,0)" stroke-width="0.5" opacity="0.2"/>
  <rect x="72" y="107" width="24" height="15" fill="rgb(56,65,157)"/>
  <line x1="72" y1="107" x2="96" y2="107" stroke="rgb(0,0,0)" stroke-width="0.5" opacity="0.3"/>
  <line x1="72" y1="122" x2="96" y2="122" stroke="rgb(0,0,0)" stroke-width="0.5" opacity="0.3"/>
  <line x1="72" y1="107" x2="72" y2="122" stroke="rgb(0,0,0)" stroke-width="0.5" opacity="0.3"/>
  <line x1="96" y1="107" x2="96" y2="122" stroke="rgb(0,0,0)" stroke-width="0.5" opacity="0.3"/>
  <rect x="74.5" y="105" width="7" height="3" fill="rgb(56,65,157)"/>
  <rect x="74.5" y="105" width="7" height="3" fill="none" stroke="rgb(0,0,0)" stroke-width="0.5" opacity="0.2"/>
  <rect x="86.5" y="105" width="7" height="3" fill="rgb(56,65,157)"/>
  <rect x="86.5" y="105" width="7" height="3" fill="none" stroke="rgb(0,0,0)" stroke-width="0.5" opacity="0.2"/>
  <rect x="144" y="107" width="24" height="15" fill="rgb(56,65,157)"/>
  <line x1="144" y1="107" x2="168" y2="107" stroke="rgb(0,0,0)" stroke-width="0.5" opacity="0.3"/>
  <line x1="144" y1="122" x2="168" y2="122" stroke="rgb(0,0,0)" stroke-width="0.5" opacity="0.3"/>
  <line x1="144" y1="107" x2="144" y2="122" stroke="rgb(0,0,0)" stroke-width="0.5" opacity="0.3"/>
  <line x1="168" y1="107" x2="168" y2="122" stroke="rgb(0,0,0)" stroke-width="0.5" opacity="0.3"/>
  <rect x="146.5" y="105" width="7" height="3" fill="rgb(56,65,157)"/>
  <rect x="146.5" y="105" width="7" height="3" fill="none" stroke="rgb(0,0,0)" stroke-width="0.5" opacity="0.2"/>
  <rect x="158.5" y="105" width="7" height="3" fill="rgb(56,65,157)"/>
  <rect x="158.5" y="105" width="7" height="3" fill="none" stroke="rgb(0,0,0)" stroke-width="0.5" opacity="0.2"/>
  <rect x="192" y="107" width="24" height="15" fill="rgb(56,135,190)"/>
  <line x1="192" y1="107" x2="216" y2="107" stroke="rgb(0,0,0)" stroke-width="0.5" opacity="0.3"/>
  <line x1="192" y1="122" x2="216" y2="122" stroke="rgb(0,0,0)" stroke-width="0.5" opacity="0.3"/>
  <line x1="192" y1="107" x2="192" y2="122" stroke="rgb(0,0,0)" stroke-width="0.5" opacity="0.3"/>
  <line x1="216" y1="107" x2="216" y2="122" stroke="rgb(0,0,0)" stroke-width="0.5" opacity="0.3"/>
  <rect x="194.5" y="105" width="7" height="3" fill="rgb(56,135,190)"/>
  <rect x="194.5" y="105" width="7" height="3" fill="none" stroke="rgb(0,0,0)" stroke-width="0.5" opacity="0.2"/>
  <rect x="206.5" y="105" width="7" height="3" fill="rgb(56,135,190)"/>
  <rect x="206.5" y="105" width="7" height="3" fill="none" stroke="rgb(0,0,0)" stroke-width="0.5" opacity="0.2"/>
  <rect x="228" y="107" width="12" height="15" fill="rgb(56,135,190)"/>
  <line x1="228" y1="107" x2="240" y2="107" stroke="rgb(0,0,0)" stroke-width="0.5" opacity="0.3"/>
  <line x1="228" y1="122" x2="240" y2="122" stroke="rgb(0,0,0)" stroke-width="0.5" opacity="0.3"/>
  <line x1="228" y1="107" x2="228" y2="122" stroke="rgb(0,0,0)" stroke-width="0.5" opacity="0.3"/>
  <line x1="240" y1="107" x2="240" y2="122" stroke="rgb(0,0,0)" stroke-width="0.5" opacity="0.3"/>
  <rect x="230.5" y="105" width="7" height="3" fill="rgb(56,135,190)"/>
  <rect x="230.5" y="105" width="7" height="3" fill="none" stroke="rgb(0,0,0)" stroke-width="0.5" opacity="0.2"/>
  <rect x="24" y="92" width="12" height="15" fill="rgb(82,211,216)"/>
  <line x1="24" y1="92" x2="36" y2="92" stroke="rgb(0,0,0)" stroke-width="0.5" opacity="0.3"/>
  <line x1="24" y1="107" x2="36" y2="107" stroke="rgb(0,0,0)" stroke-width="0.5" opacity="0.3"/>
  <line x1="24" y1="92" x2="24" y2="107" stroke="rgb(0,0,0)" stroke-width="0.5" opacity="0.3"/>
  <line x1="36" y1="92" x2="36" y2="107" stroke="rgb(0,0,0)" stroke-width="0.5" opacity="0.3"/>
  <rect x="26.5" y="90" width="7" height="3" fill="rgb(82,211,216)"/>
  <rect x="26.5" y="90" width="7" height="3" fill="none" stroke="rgb(0,0,0)" stroke-width="0.5" opacity="0.2"/>
  <rect x="72" y="92" width="24" height="15" fill="rgb(56,65,157)"/>
  <line x1="72" y1="92" x2="96" y2="92" stroke="rgb(0,0,0)" stroke-width="0.5" opacity="0.3"/>
  <line x1="72" y1="107" x2="96" y2="107" stroke="rgb(0,0,0)" stroke-width="0.5" opacity="0.3"/>
  <line x1="72" y1="92" x2="72" y2="107" stroke="rgb(0,0,0)" stroke-width="0.5" opacity="0.3"/>
  <line x1="96" y1="92" x2="96" y2="107" stroke="rgb(0,0,0)" stroke-width="0.5" opacity="0.3"/>
  <rect x="74.5" y="90" width="7" height="3" fill="rgb(56,65,157)"/>
  <rect x="74.5" y="90" width="7" height="3" fill="none" stroke="rgb(0,0,0)" stroke-width="0.5" opacity="0.2"/>
  <rect x="86.5" y="90" width="7" height="3" fill="rgb(56,65,157)"/>
  <rect x="86.5" y="90" width="7" height="3" fill="none" stroke="rgb(0,0,0)" stroke-width="0.5" opacity="0.2"/>
  <rect x="132" y="92" width="36" height="15" fill="rgb(56,65,157)"/>
  <line x1="132" y1="92" x2="168" y2="92" stroke="rgb(0,0,0)" stroke-width="0.5" opacity="0.3"/>
  <line x1="132" y1="107" x2="168" y2="107" stroke="rgb(0,0,0)" stroke-width="0.5" opacity="0.3"/>
  <line x1="132" y1="92" x2="132" y2="107" stroke="rgb(0,0,0)" stroke-width="0.5" opacity="0.3"/>
  <line x1="168" y1="92" x2="168" y2="107" stroke="rgb(0,0,0)" stroke-width="0.5" opacity="0.3"/>
  <rect x="134.5" y="90" width="7" height="3" fill="rgb(56,65,157)"/>
  <rect x="134.5" y="90" width="7" height="3" fill="none" stroke="rgb(0,0,0)" stroke-width="0.5" opacity="0.2"/>
  <rect x="146.5" y="90" width="7" height="3" fill="rgb(56,65,157)"/>
  <rect x="146.5" y="90" width="7" height="3" fill="none" stroke="rgb(0,0,0)" stroke-width="0.5" opacity="0.2"/>
  <rect x="158.5" y="90" width="7" height="3" fill="rgb(56,65,157)"/>
  <rect x="158.5" y="90" width="7" height="3" fill="none" stroke="rgb(0,0,0)" stroke-width="0.5" opacity="0.2"/>
  <rect x="180" y="92" width="36" height="15" fill="rgb(56,135,190)"/>
  <line x1="180" y1="92" x2="216" y2="92" stroke="rgb(0,0,0)" stroke-width="0.5" opacity="0.3"/>
  <line x1="180" y1="107" x2="216" y2="107" stroke="rgb(0,0,0)" stroke-width="0.5" opacity="0.3"/>
  <line x1="180" y1="92" x2="180" y2="107" stroke="rgb(0,0,0)" stroke-width="0.5" opacity="0.3"/>
  <line x1="216" y1="92" x2="216" y2="107" stroke="rgb(0,0,0)" stroke-width="0.5" opacity="0.3"/>
  <rect x="182.5" y="90" width="7" height="3" fill="rgb(56,135,190)"/>
  <rect x="182.5" y="90" width="7" height="3" fill="none" stroke="rgb(0,0,0)" stroke-width="0.5" opacity="0.2"/>
  <rect x="194.5" y="90" width="7" height="3" fill="rgb(56,135,190)"/>
  <rect x="194.5" y="90" width="7" height="3" fill="none" stroke="rgb(0,0,0)" stroke-width="0.5" opacity="0.2"/>
  <rect x="206.5" y="90" width="7" height="3" fill="rgb(56,135,190)"/>
  <rect x="206.5" y="90" width="7" height="3" fill="none" stroke="rgb(0,0,0)" stroke-width="0.5" opacity="0.2"/>
  <rect x="0" y="77" width="48" height="15" fill="rgb(82,211,216)"/>
  <line x1="0" y1="77" x2="48" y2="77" stroke="rgb(0,0,0)" stroke-width="0.5" opacity="0.3"/>
  <line x1="0" y1="92" x2="48" y2="92" stroke="rgb(0,0,0)" stroke-width="0.5" opacity="0.3"/>
  <line x1="0" y1="77" x2="0" y2="92" stroke="rgb(0,0,0)" stroke-width="0.5" opacity="0.3"/>
  <line x1="48" y1="77" x2="48" y2="92" stroke="rgb(0,0,0)" stroke-width="0.5" opacity="0.3"/>
  <rect x="2.5" y="75" width="7" height="3" fill="rgb(82,211,216)"/>
  <rect x="2.5" y="75" width="7" height="3" fill="none" stroke="rgb(0,0,0)" stroke-width="0.5" opacity="0.2"/>
  <rect x="14.5" y="75" width="7" height="3" fill="rgb(82,211,216)"/>
  <rect x="14.5" y="75" width="7" height="3" fill="none" stroke="rgb(0,0,0)" stroke-width="0.5" opacity="0.2"/>
  <rect x="26.5" y="75" width="7" height="3" fill="rgb(82,211,216)"/>
  <rect x="26.5" y="75" width="7" height="3" fill="none" stroke="rgb(0,0,0)" stroke-width="0.5" opacity="0.2"/>
  <rect x="38.5" y="75" width="7" height="3" fill="rgb(82,211,216)"/>
  <rect x="38.5" y="75" width="7" height="3" fill="none" stroke="rgb(0,0,0)" stroke-width="0.5" opacity="0.2"/>
  <rect x="72" y="77" width="36" height="15" fill="rgb(56,65,157)"/>
  <line x1="72" y1="77" x2="108" y2="77" stroke="rgb(0,0,0)" stroke-width="0.5" opacity="0.3"/>
  <line x1="72" y1="92" x2="108" y2="92" stroke="rgb(0,0,0)" stroke-width="0.5" opacity="0.3"/>
  <line x1="72" y1="77" x2="72" y2="92" stroke="rgb(0,0,0)" stroke-width="0.5" opacity="0.3"/>
  <line x1="108" y1="77" x2="108" y2="92" stroke="rgb(0,0,0)" stroke-width="0.5" opacity="0.3"/>
  <rect x="74.5" y="75" width="7" height="3" fill="rgb(56,65,157)"/>
  <rect x="74.5" y="75" width="7" height="3" fill="none" stroke="rgb(0,0,0)" stroke-width="0.5" opacity="0.2"/>
  <rect x="86.5" y="75" width="7" height="3" fill="rgb(56,65,157)"/>
  <rect x="86.5" y="75" width="7" height="3" fill="none" stroke="rgb(0,0,0)" stroke-width="0.5" opacity="0.2"/>
  <rect x="98.5" y="75" width="7" height="3" fill="rgb(56,65,157)"/>
  <rect x="98.5" y="75" width="7" height="3" fill="none" stroke="rgb(0,0,0)" stroke-width="0.5" opacity="0.2"/>
  <rect x="108" y="77" width="48" height="15" fill="rgb(56,65,157)"/>
  <line x1="108" y1="77" x2="156" y2="77" stroke="rgb(0,0,0)" stroke-width="0.5" opacity="0.3"/>
  <line x1="108" y1="92" x2="156" y2="92" stroke="rgb(0,0,0)" stroke-width="0.5" opacity="0.3"/>
  <line x1="108" y1="77" x2="108" y2="92" stroke="rgb(0,0,0)" stroke-width="0.5" opacity="0.3"/>
  <line x1="156" y1="77" x2="156" y2="92" stroke="rgb(0,0,0)" stroke-width="0.5" opacity="0.3"/>
  <rect x="110.5" y="75" width="7" height="3" fill="rgb(56,65,157)"/>
  <rect x="110.5" y="75" width="7" height="3" fill="none" stroke="rgb(0,0,0)" stroke-width="0.5" opacity="0.2"/>
  <rect x="122.5" y="75" width="7" height="3" fill="rgb(56,65,157)"/>
  <rect x="122.5" y="75" width="7" height="3" fill="none" stroke="rgb(0,0,0)" stroke-width="0.5" opacity="0.2"/>
  <rect x="134.5" y="75" width="7" height="3" fill="rgb(56,65,157)"/>
  <rect x="134.5" y="75" width="7" height="3" fill="none" stroke="rgb(0,0,0)" stroke-width="0.5" opacity="0.2"/>
  <rect x="146.5" y="75" width="7" height="3" fill="rgb(56,65,157)"/>
  <rect x="146.5" y="75" width="7" height="3" fill="none" stroke="rgb(0,0,0)" stroke-width="0.5" opacity="0.2"/>
  <rect x="168" y="77" width="36" height="15" fill="rgb(56,135,190)"/>
  <line x1="168" y1="77" x2="204" y2="77" stroke="rgb(0,0,0)" stroke-width="0.5" opacity="0.3"/>
  <line x1="168" y1="92" x2="204" y2="92" stroke="rgb(0,0,0)" stroke-width="0.5" opacity="0.3"/>
  <line x1="168" y1="77" x2="168" y2="92" stroke="rgb(0,0,0)" stroke-width="0.5" opacity="0.3"/>
  <line x1="204" y1="77" x2="204" y2="92" stroke="rgb(0,0,0)" stroke-width="0.5" opacity="0.3"/>
  <rect x="170.5" y="75" width="7" height="3" fill="rgb(56,135,190)"/>
  <rect x="170.5" y="75" width="7" height="3" fill="none" stroke="rgb(0,0,0)" stroke-width="0.5" opacity="0.2"/>
  <rect x="182.5" y="75" width="7" height="3" fill="rgb(56,135,190)"/>
  <rect x="182.5" y="75" width="7" height="3" fill="none" stroke="rgb(0,0,0)" stroke-width="0.5" opacity="0.2"/>
  <rect x="194.5" y="75" width="7" height="3" fill="rgb(56,135,190)"/>
  <rect x="194.5" y="75" width="7" height="3" fill="none" stroke="rgb(0,0,0)" stroke-width="0.5" opacity="0.2"/>
  <rect x="0" y="62" width="36" height="15" fill="rgb(82,211,216)"/>
  <line x1="0" y1="62" x2="36" y2="62" stroke="rgb(0,0,0)" stroke-width="0.5" opacity="0.3"/>
  <line x1="0" y1="77" x2="36" y2="77" stroke="rgb(0,0,0)" stroke-width="0.5" opacity="0.3"/>
  <line x1="0" y1="62" x2="0" y2="77" stroke="rgb(0,0,0)" stroke-width="0.5" opacity="0.3"/>
  <line x1="36" y1="62" x2="36" y2="77" stroke="rgb(0,0,0)" stroke-width="0.5" opacity="0.3"/>
  <rect x="2.5" y="60" width="7" height="3" fill="rgb(82,211,216)"/>
  <rect x="2.5" y="60" width="7" height="3" fill="none" stroke="rgb(0,0,0)" stroke-width="0.5" opacity="0.2"/>
  <rect x="14.5" y="60" width="7" height="3" fill="rgb(82,211,216)"/>
  <rect x="14.5" y="60" width="7" height="3" fill="none" stroke="rgb(0,0,0)" stroke-width="0.5" opacity="0.2"/>
  <rect x="26.5" y="60" width="7" height="3" fill="rgb(82,211,216)"/>
  <rect x="26.5" y="60" width="7" height="3" fill="none" stroke="rgb(0,0,0)" stroke-width="0.5" opacity="0.2"/>
  <rect x="72" y="62" width="48" height="15" fill="rgb(56,65,157)"/>
  <line x1="72" y1="62" x2="120" y2="62" stroke="rgb(0,0,0)" stroke-width="0.5" opacity="0.3"/>
  <line x1="72" y1="77" x2="120" y2="77" stroke="rgb(0,0,0)" stroke-width="0.5" opacity="0.3"/>
  <line x1="72" y1="62" x2="72" y2="77" stroke="rgb(0,0,0)" stroke-width="0.5" opacity="0.3"/>
  <line x1="120" y1="62" x2="120" y2="77" stroke="rgb(0,0,0)" stroke-width="0.5" opacity="0.3"/>
  <rect x="74.5" y="60" width="7" height="3" fill="rgb(56,65,157)"/>
  <rect x="74.5" y="60" width="7" height="3" fill="none" stroke="rgb(0,0,0)" stroke-width="0.5" opacity="0.2"/>
  <rect x="86.5" y="60" width="7" height="3" fill="rgb(56,65,157)"/>
  <rect x="86.5" y="60" width="7" height="3" fill="none" stroke="rgb(0,0,0)" stroke-width="0.5" opacity="0.2"/>
  <rect x="98.5" y="60" width="7" height="3" fill="rgb(56,65,157)"/>
  <rect x="98.5" y="60" width="7" height="3" fill="none" stroke="rgb(0,0,0)" stroke-width="0.5" opacity="0.2"/>
  <rect x="110.5" y="60" width="7" height="3" fill="rgb(56,65,157)"/>
  <rect x="110.5" y="60" width="7" height="3" fill="none" stroke="rgb(0,0,0)" stroke-width="0.5" opacity="0.2"/>
  <rect x="120" y="62" width="24" height="15" fill="rgb(56,65,157)"/>
  <line x1="120" y1="62" x2="144" y2="62" stroke="rgb(0,0,0)" stroke-width="0.5" opacity="0.3"/>
  <line x1="120" y1="77" x2="144" y2="77" stroke="rgb(0,0,0)" stroke-width="0.5" opacity="0.3"/>
  <line x1="120" y1="62" x2="120" y2="77" stroke="rgb(0,0,0)" stroke-width="0.5" opacity="0.3"/>
  <line x1="144" y1="62" x2="144" y2="77" stroke="rgb(0,0,0)" stroke-width="0.5" opacity="0.3"/>
  <rect x="122.5" y="60" width="7" height="3" fill="rgb(56,65,157)"/>
  <rect x="122.5" y="60" width="7" height="3" fill="none" stroke="rgb(0,0,0)" stroke-width="0.5" opacity="0.2"/>
  <rect x="134.5" y="60" width="7" height="3" fill="rgb(56,65,157)"/>
  <rect x="134.5" y="60" width="7" height="3" fill="none" stroke="rgb(0,0,0)" stroke-width="0.5" opacity="0.2"/>
  <rect x="168" y="62" width="24" height="15" fill="rgb(56,135,190)"/>
  <line x1="168" y1="62" x2="192" y2="62" stroke="rgb(0,0,0)" stroke-width="0.5" opacity="0.3"/>
  <line x1="168" y1="77" x2="192" y2="77" stroke="rgb(0,0,0)" stroke-width="0.5" opacity="0.3"/>
  <line x1="168" y1="62" x2="168" y2="77" stroke="rgb(0,0,0)" stroke-width="0.5" opacity="0.3"/>
  <line x1="192" y1="62" x2="192" y2="77" stroke="rgb(0,0,0)" stroke-width="0.5" opacity="0.3"/>
  <rect x="170.5" y="60" width="7" height="3" fill="rgb(56,135,190)"/>
  <rect x="170.5" y="60" width="7" height="3" fill="none" stroke="rgb(0,0,0)" stroke-width="0.5" opacity="0.2"/>
  <rect x="182.5" y="60" width="7" height="3" fill="rgb(56,135,190)"/>
  <rect x="182.5" y="60" width="7" height="3" fill="none" stroke="rgb(0,0,0)" stroke-width="0.5" opacity="0.2"/>
  <rect x="192" y="62" width="12" height="15" fill="rgb(55,135,190)"/>
  <line x1="192" y1="62" x2="204" y2="62" stroke="rgb(0,0,0)" stroke-width="0.5" opacity="0.3"/>
  <line x1="192" y1="77" x2="204" y2="77" stroke="rgb(0,0,0)" stroke-width="0.5" opacity="0.3"/>
  <line x1="192" y1="62" x2="192" y2="77" stroke="rgb(0,0,0)" stroke-width="0.5" opacity="0.3"/>
  <line x1="204" y1="62" x2="204" y2="77" stroke="rgb(0,0,0)" stroke-width="0.5" opacity="0.3"/>
  <rect x="194.5" y="60" width="7" height="3" fill="rgb(55,135,190)"/>
  <rect x="194.5" y="60" width="7" height="3" fill="none" stroke="rgb(0,0,0)" stroke-width="0.5" opacity="0.2"/>
</svg>