<?xml version="1.0" encoding="UTF-8" standalone="no"?>
<svg
   width="200"
   height="200"
   viewBox="0 0 200 200"
   version="1.1"
   id="svg3"
   sodipodi:docname="spy-square-multicolor-darkbg.svg"
   xmlns:inkscape="http://www.inkscape.org/namespaces/inkscape"
   xmlns:sodipodi="http://sodipodi.sourceforge.net/DTD/sodipodi-0.dtd"
   xmlns="http://www.w3.org/2000/svg"
   xmlns:svg="http://www.w3.org/2000/svg">
  <sodipodi:namedview
     id="namedview3"
     pagecolor="#ffffff"
     bordercolor="#000000"
     borderopacity="0.25"
     inkscape:showpageshadow="2"
     inkscape:pageopacity="0.0"
     inkscape:pagecheckerboard="0"
     inkscape:deskcolor="#d1d1d1" />
  <defs
     id="defs1">
    <style
       id="style1">
      @font-face {
        font-family: 'Outfit';
        src: url('../../../fonts/Outfit-VariableFont_wght.ttf') format('truetype');
        font-weight: 100 900;
      }
    </style>
  </defs>
  <g
     id="text3"
     style="font-weight:700;font-size:155px;font-family:Outfit;letter-spacing:-0.01em;dominant-baseline:middle;text-anchor:middle"
     aria-label="SPY">
    <path
       style="fill:#52d3d8"
       d="m 2.3549444,154.37 q -13.4850004,0 -23.2500004,-4.34 -9.61,-4.495 -17.67,-13.485 l 15.81,-15.655 q 5.27,6.045 11.625,9.455 6.5100004,3.255 15.0350004,3.255 7.7499996,0 11.9349996,-2.79 4.34,-2.79 4.34,-7.75 0,-4.495 -2.79,-7.285 -2.79,-2.79 -7.4399996,-4.805 -4.495,-2.015 -10.07500003,-3.875 -5.42499997,-1.86 -10.85000037,-4.185 -5.425,-2.48 -10.075,-6.044999 -4.495,-3.72 -7.285,-9.145 -2.79,-5.58 -2.79,-13.95 0,-10.075 4.805,-17.36 4.96,-7.285 13.64,-11.005 8.6800004,-3.875 19.9950004,-3.875 11.4699996,0 20.9249996,4.03 9.61,4.03 15.81,11.005 l -15.81,15.655 q -4.96,-5.115 -10.075,-7.595 -4.96,-2.48 -11.3149996,-2.48 -6.35500003,0 -10.075,2.48 -3.72,2.325 -3.72,6.82 0,4.185 2.79,6.82 2.79,2.48 7.285,4.34 4.65,1.86 10.0749996,3.72 5.58,1.86 11.005,4.34 5.425,2.48 9.92,6.355 4.65,3.719999 7.44,9.609999 2.79,5.735 2.79,14.26 0,15.655 -11.16,24.645 -11.16,8.835 -30.8449996,8.835 z"
       id="path3" />
    <path
       style="fill:#38419d"
       d="M 76.90997,112.83 V 93.920001 h 23.56 q 4.495,0 8.215,-1.86 3.72,-1.86 5.89,-5.425 2.17,-3.565 2.17,-8.68 0,-4.96 -2.17,-8.525 -2.17,-3.565 -5.89,-5.425 -3.72,-1.86 -8.215,-1.86 h -23.56 v -18.91 h 27.125 q 10.385,0 18.755,4.185 8.37,4.185 13.175,12.09 4.96,7.75 4.96,18.445 0,10.695 -4.96,18.6 -4.805,7.749999 -13.175,12.089999 -8.37,4.185 -18.755,4.185 z m -18.6,39.835 V 43.235001 h 24.335 V 152.665 Z"
       id="path4" />
    <path
       style="fill:#f2f597"
       d="m 178.73502,111.9 -42.16,-68.664999 h 28.21 l 32.395,55.49 h -18.135 l 32.395,-55.49 h 27.59 L 196.56002,111.9 Z m -2.945,40.765 V 100.74 h 24.335 v 51.925 z"
       id="path5" />
  </g>
</svg>
